<svg xmlns="http://www.w3.org/2000/svg" width="9" height="16" viewBox="0 0 9 16">
    <g fill="#444" fill-rule="evenodd">
        <path d="M-5-2h20v20H-5z"/>
        <path fill="#DEA92C" fill-rule="nonzero" stroke="#DEA92C" stroke-linecap="round" stroke-linejoin="round" stroke-width=".8" d="M1.801 15a.203.203 0 0 1-.105-.029.214.214 0 0 1-.09-.255L3.78 8.628l-2.63-.763a.21.21 0 0 1-.142-.142.215.215 0 0 1 .04-.199l5.334-6.449a.207.207 0 0 1 .257-.05c.087.047.13.15.103.246L5.205 6.7l2.644.768a.214.214 0 0 1 .101.342l-5.99 7.116A.208.208 0 0 1 1.8 15z"/>
        <path fill="#FAD06F" d="M1.6 7.365l2.602.726a.214.214 0 0 1 .132.105c.027.052.03.113.01.167L2.435 13.5 7.6 7.599l-2.598-.726a.213.213 0 0 1-.13-.1.204.204 0 0 1-.017-.159L6.214 2 1.6 7.365z"/>
    </g>
</svg>
