<svg xmlns="http://www.w3.org/2000/svg" width="40" height="40" viewBox="0 0 40 40">
    <g fill="#444" fill-rule="nonzero" stroke="#FFF">
        <path stroke-width=".6" d="M31.733 15.667H21.067c3.2-3.556-3.2-7.112 0-10.667h-2.134c-3.2 3.555 3.2 7.111 0 10.667H8.267A4.267 4.267 0 0 0 4 19.933V30.6a4.267 4.267 0 0 0 4.267 4.267h23.466A4.267 4.267 0 0 0 36 30.6V19.933a4.267 4.267 0 0 0-4.267-4.266zM33.867 30.6a2.136 2.136 0 0 1-2.134 2.133H8.267A2.136 2.136 0 0 1 6.133 30.6V19.933c0-1.176.958-2.133 2.134-2.133h23.466c1.176 0 2.134.957 2.134 2.133V30.6z"/>
        <g stroke-width=".4">
            <path d="M8.767 22.067H9.9a.5.5 0 0 0 .5-.5v-1.134a.5.5 0 0 0-.5-.5H8.767a.5.5 0 0 0-.5.5v1.134a.5.5 0 0 0 .5.5zM8.767 26.333H9.9a.5.5 0 0 0 .5-.5V24.7a.5.5 0 0 0-.5-.5H8.767a.5.5 0 0 0-.5.5v1.133a.5.5 0 0 0 .5.5zM8.767 30.6H9.9a.5.5 0 0 0 .5-.5v-1.133a.5.5 0 0 0-.5-.5H8.767a.5.5 0 0 0-.5.5V30.1a.5.5 0 0 0 .5.5zM14.167 19.933h-1.134a.5.5 0 0 0-.5.5v1.134a.5.5 0 0 0 .5.5h1.134a.5.5 0 0 0 .5-.5v-1.134a.5.5 0 0 0-.5-.5zM14.167 24.2h-1.134a.5.5 0 0 0-.5.5v1.133a.5.5 0 0 0 .5.5h1.134a.5.5 0 0 0 .5-.5V24.7a.5.5 0 0 0-.5-.5zM18.433 19.933H17.3a.5.5 0 0 0-.5.5v1.134a.5.5 0 0 0 .5.5h1.133a.5.5 0 0 0 .5-.5v-1.134a.5.5 0 0 0-.5-.5zM18.433 24.2H17.3a.5.5 0 0 0-.5.5v1.133a.5.5 0 0 0 .5.5h1.133a.5.5 0 0 0 .5-.5V24.7a.5.5 0 0 0-.5-.5zM21.567 22.067H22.7a.5.5 0 0 0 .5-.5v-1.134a.5.5 0 0 0-.5-.5h-1.133a.5.5 0 0 0-.5.5v1.134a.5.5 0 0 0 .5.5zM21.567 26.333H22.7a.5.5 0 0 0 .5-.5V24.7a.5.5 0 0 0-.5-.5h-1.133a.5.5 0 0 0-.5.5v1.133a.5.5 0 0 0 .5.5zM25.833 22.067h1.134a.5.5 0 0 0 .5-.5v-1.134a.5.5 0 0 0-.5-.5h-1.134a.5.5 0 0 0-.5.5v1.134a.5.5 0 0 0 .5.5zM25.833 26.333h1.134a.5.5 0 0 0 .5-.5V24.7a.5.5 0 0 0-.5-.5h-1.134a.5.5 0 0 0-.5.5v1.133a.5.5 0 0 0 .5.5zM25.833 30.6h1.134a.5.5 0 0 0 .5-.5v-1.133a.5.5 0 0 0-.5-.5h-1.134a.5.5 0 0 0-.5.5V30.1a.5.5 0 0 0 .5.5zM30.1 22.067h1.133a.5.5 0 0 0 .5-.5v-1.134a.5.5 0 0 0-.5-.5H30.1a.5.5 0 0 0-.5.5v1.134a.5.5 0 0 0 .5.5zM30.1 26.333h1.133a.5.5 0 0 0 .5-.5V24.7a.5.5 0 0 0-.5-.5H30.1a.5.5 0 0 0-.5.5v1.133a.5.5 0 0 0 .5.5zM30.1 30.6h1.133a.5.5 0 0 0 .5-.5v-1.133a.5.5 0 0 0-.5-.5H30.1a.5.5 0 0 0-.5.5V30.1a.5.5 0 0 0 .5.5zM13.033 30.6H22.7a.5.5 0 0 0 .5-.5v-1.133a.5.5 0 0 0-.5-.5h-9.667a.5.5 0 0 0-.5.5V30.1a.5.5 0 0 0 .5.5z"/>
        </g>
    </g>
</svg>
