<svg xmlns="http://www.w3.org/2000/svg" width="136" height="139" viewBox="0 0 136 139" fill='#444'>
    <g fill="none" fill-rule="nonzero">
        <path fill="#EDF0F2" d="M70 0C36.727 0 10 26.727 10 60c0 33.273 26.727 60 60 60 33.273 0 60-26.727 60-60 0-33.273-26.727-60-60-60zm5.455 92.727c0 1.637-1.091 2.728-2.728 2.728h-5.454c-1.637 0-2.728-1.091-2.728-2.728v-5.454c0-1.637 1.091-2.728 2.728-2.728h5.454c1.637 0 2.728 1.091 2.728 2.728v5.454zm7.363-24.272c-3.818 3.272-6.545 5.454-7.363 8.454-.273 1.364-1.364 2.182-2.728 2.182h-5.454c-1.637 0-3-1.364-2.728-3C65.636 68.18 71.364 63.818 76 60c4.91-3.818 7.636-6.273 7.636-10.91 0-7.635-6-13.635-13.636-13.635-7.636 0-13.636 6-13.636 13.636v1.636c.272 1.364-.546 2.728-1.91 3l-5.181 1.637c-1.637.545-3.273-.546-3.546-2.182-.272-1.364-.272-2.727-.272-4.091A24.443 24.443 0 0 1 70 24.545a24.443 24.443 0 0 1 24.545 24.546c0 10.09-6.545 15.273-11.727 19.364z"/>
        <path fill="#B8C2CC" d="M52.797 137.044L2.423 118.709a1.873 1.873 0 0 1-.89-2.84L24.4 88.638a1.874 1.874 0 0 1 2.174-.684l50.373 18.334c1.16.422 1.296 1.728.89 2.84L54.97 136.36a1.874 1.874 0 0 1-2.173.684z"/>
        <path fill="#DCE1E6" d="M49.42 135.815L2.423 118.709a1.873 1.873 0 0 1-.89-2.84L24.4 88.638a1.874 1.874 0 0 1 2.174-.684l46.997 17.105c1.159.422 1.296 1.728.89 2.84l-22.867 27.232a1.874 1.874 0 0 1-2.174.684z"/>
        <path fill="#B8C2CC" d="M73.634 93.601l-28.437-10.35-2.757-9.933-20.559-7.483a2.074 2.074 0 0 0-2.66 1.242l-17.518 48.13c.077.031.153.063.227.096L24.4 88.638a1.874 1.874 0 0 1 2.174-.684l45.32 16.495 2.98-8.186a2.078 2.078 0 0 0-1.24-2.662z"/>
        <path fill="#B8C2CC" d="M70.258 92.373l-25.06-9.122-2.758-9.933-20.559-7.483a2.074 2.074 0 0 0-2.66 1.242l-17.518 48.13c.077.031.153.063.227.096L24.4 88.638a1.874 1.874 0 0 1 2.174-.684l41.944 15.266 2.98-8.186a2.078 2.078 0 0 0-1.24-2.661z"/>
        <path fill="#FFF" d="M23.308 66.354l-.394-.143a2.074 2.074 0 0 0-2.66 1.242l-17.518 48.13c.077.031.153.063.227.096l4.355-5.394 15.99-43.93z"/>
        <g fill="#667480">
            <path d="M52.387 138.17L2.014 119.836a3.07 3.07 0 0 1-1.46-4.658l22.93-27.311a3.041 3.041 0 0 1 3.5-1.04l50.373 18.335c1.637.596 2.313 2.436 1.606 4.377a1.2 1.2 0 0 1-.208.36l-22.868 27.232a3.041 3.041 0 0 1-3.5 1.039zM26.164 89.08a.678.678 0 0 0-.784.247L2.45 116.64a.644.644 0 0 0-.03.51.662.662 0 0 0 .414.433l50.373 18.334a.678.678 0 0 0 .784-.246l22.775-27.128c.084-.318.198-.973-.229-1.128L26.164 89.08z"/>
            <path d="M1.52 116.43a1.13 1.13 0 0 1-.08-.033l-.194-.082a1.198 1.198 0 0 1-.668-1.518l17.518-48.13a3.278 3.278 0 0 1 4.195-1.958l20.559 7.483a1.2 1.2 0 0 1 .744.805l2.592 9.339 27.858 10.139A3.278 3.278 0 0 1 76 96.672l-2.98 8.187a1.199 1.199 0 0 1-1.535.717L26.164 89.08a.678.678 0 0 0-.784.247l-22.534 26.75a1.199 1.199 0 0 1-1.325.353zm19.951-49.468a.878.878 0 0 0-1.125.525l-15.443 42.43 18.582-22.052a3.04 3.04 0 0 1 3.499-1.037l44.194 16.085 2.57-7.06a.878.878 0 0 0-.524-1.125l-28.437-10.35a1.2 1.2 0 0 1-.744-.806l-2.592-9.338-19.98-7.272z"/>
        </g>
        <g transform="rotate(10 -199.106 567.567)">
            <circle cx="18.928" cy="18.93" r="18.024" fill="#B8C2CC"/>
            <ellipse cx="17.125" cy="18.93" fill="#DCE1E6" rx="16.222" ry="18.024"/>
            <path fill="#FFF" d="M17.125 36.954a14.728 14.728 0 0 0 1.803-.117c-8.11-.997-14.42-8.63-14.42-17.907s6.31-16.91 14.42-17.907c-.598-.076-1.2-.115-1.803-.117C8.166.906.904 8.976.904 18.93s7.262 18.024 16.221 18.024z"/>
            <g fill="#667480" stroke="#667480" stroke-width=".6">
                <path d="M44.509 47.961a.898.898 0 0 1-.638-.264L29.695 33.521a.902.902 0 0 1 .067-1.335 17.264 17.264 0 0 0 2.422-2.422.899.899 0 0 1 1.335-.067l14.176 14.176a.9.9 0 0 1 0 1.275l-2.55 2.55a.898.898 0 0 1-.636.263zM31.655 32.932L44.51 45.786l1.274-1.275L32.93 31.657c-.404.444-.83.87-1.275 1.275z"/>
                <path d="M18.928 37.855A18.925 18.925 0 0 1 4.734 6.412a.901.901 0 1 1 1.351 1.192c-5.753 6.54-5.664 16.36.207 22.794 5.872 6.434 15.644 7.418 22.68 2.285 7.037-5.134 9.084-14.74 4.75-22.295C29.388 2.832 20.062-.251 12.079 3.23a.901.901 0 0 1-.722-1.651 18.927 18.927 0 1 1 7.57 36.275z"/>
                <circle cx="8.113" cy="4.511" r="1"/>
            </g>
        </g>
    </g>
</svg>
