<svg xmlns="http://www.w3.org/2000/svg" width="46" height="29" viewBox="0 0 46 29">
    <g fill="none" fill-rule="evenodd" transform="rotate(-15 23.261 10.79)">
        <rect width="25" height="25" x="9.5" y="1.5" stroke="#1F2933" stroke-width="3" rx="12.5"/>
        <rect width="17" height="17" x="13.5" y="5.5" stroke="#1F2933" rx="8.5"/>
        <path fill="#FFF" d="M0 10h44v8H0z"/>
        <path fill="#1F2933" fill-rule="nonzero" d="M6.46 16.355c-.222.24-.493.42-.815.541a2.976 2.976 0 0 1-1.056.182c-.654 0-1.162-.202-1.524-.607-.362-.405-.548-.994-.558-1.768V13.68c0-.784.17-1.388.513-1.81.343-.424.842-.636 1.498-.636.618 0 1.083.153 1.397.457.314.305.495.783.545 1.434H5.343c-.032-.362-.107-.609-.227-.74-.12-.132-.307-.197-.562-.197-.31 0-.536.113-.676.34-.14.226-.214.587-.219 1.081v1.032c0 .518.077.895.232 1.13.155.236.41.354.764.354.227 0 .41-.046.55-.137l.102-.07v-1.043h-.804v-.867H6.46v2.347zm4.578-5.043v3.938c-.005.591-.168 1.044-.488 1.357-.32.314-.78.471-1.379.471-.61 0-1.075-.159-1.397-.476-.321-.318-.482-.778-.482-1.38v-3.91h1.156v3.915c0 .322.052.553.157.691.104.138.293.207.566.207.273 0 .46-.068.562-.205.102-.137.154-.361.157-.674v-3.934h1.148zm3.567 4.524h-1.567L12.734 17h-1.215l1.777-5.688h1.051L16.137 17H14.91l-.305-1.164zm-1.317-.957h1.063l-.531-2.027-.532 2.027zm5.169.043h-.57V17h-1.15v-5.688h1.833c.575 0 1.02.15 1.334.448.314.298.47.722.47 1.271 0 .755-.274 1.284-.824 1.586l.996 2.328V17h-1.234l-.855-2.078zm-.57-.957h.652c.229 0 .4-.076.515-.229.115-.152.172-.356.172-.611 0-.57-.222-.855-.668-.855h-.672v1.695zm6.058 1.87H22.38L22.074 17H20.86l1.778-5.688h1.05L25.477 17H24.25l-.305-1.164zm-1.316-.956h1.062l-.531-2.027-.531 2.027zM30.05 17h-1.149l-1.68-3.73V17h-1.148v-5.688h1.149l1.683 3.735v-3.735h1.145V17zm4.559-4.73h-1.406V17H32.05v-4.73h-1.383v-.957h3.942v.957zm3.664 2.27h-1.789v1.507h2.117V17h-3.265v-5.688h3.257v.958h-2.109v1.343h1.79v.926zm3.993 0h-1.79v1.507h2.118V17h-3.266v-5.688h3.258v.958h-2.11v1.343h1.79v.926z"/>
        <path fill="#1F2933" d="M22 10l-1.176.618.225-1.309-.951-.927 1.314-.191L22 7l.588 1.191 1.314.191-.95.927.224 1.309zM22 21l-1.176.618.225-1.309-.951-.927 1.314-.191L22 18l.588 1.191 1.314.191-.95.927.224 1.309z"/>
    </g>
</svg>
