<svg xmlns="http://www.w3.org/2000/svg" width="25" height="23" viewBox="0 0 25 23">
    <g fill="none" fill-rule="evenodd">
        <path d="M-13-15h48v48h-48z"/>
        <g stroke="#1476CC" stroke-linecap="round" stroke-linejoin="round" stroke-width="2">
            <path d="M3 1h16c1.1 0 2 .9 2 2v12c0 1.1-.9 2-2 2H3c-1.1 0-2-.9-2-2V3c0-1.1.9-2 2-2z"/>
            <path d="M21 3l-10 7L1 3"/>
        </g>
        <path d="M11 9h16v16H11z"/>
        <path fill="#21A64D" fill-rule="nonzero" d="M18.996 11.4a5.596 5.596 0 1 0 0 11.191 5.596 5.596 0 0 0 0-11.191z"/>
        <path fill="#FFF" d="M17.97 19.87l-2.465-2.464.822-.821 1.642 1.643 3.696-3.696.821.821z"/>
    </g>
</svg>
