<svg xmlns="http://www.w3.org/2000/svg" width="34" height="40" viewBox="0 0 34 40">
    <g fill="none" fill-rule="evenodd">
        <path d="M-7-4h48v48H-7z"/>
        <g fill="#E1EEFA">
            <path d="M33.126 31.9V2.344A2.346 2.346 0 0 0 30.782 0H2.344A2.346 2.346 0 0 0 .001 2.344v35.312A2.346 2.346 0 0 0 2.344 40h28.438a2.346 2.346 0 0 0 2.344-2.344v-5.755h-1.563v5.755c0 .431-.35.782-.781.782H2.344a.782.782 0 0 1-.781-.782V2.344c0-.431.35-.781.781-.781h28.438c.43 0 .781.35.781.78V31.9h1.563z"/>
            <path fill-rule="nonzero" d="M16.563 4.219c-3.963 0-7.187 3.224-7.187 7.187a7.168 7.168 0 0 0 2.34 5.303 7.16 7.16 0 0 0 4.847 1.885 7.16 7.16 0 0 0 4.931-1.964 7.168 7.168 0 0 0 2.257-5.224c0-3.963-3.225-7.187-7.188-7.187zm0 12.812a5.595 5.595 0 0 1-3.398-1.146 3.881 3.881 0 0 1 3.398-1.979c1.43 0 2.711.762 3.398 1.98a5.595 5.595 0 0 1-3.398 1.145zm-1.25-5.937v-.508c0-.69.56-1.25 1.25-1.25s1.25.56 1.25 1.25v.508c0 .689-.56 1.25-1.25 1.25s-1.25-.561-1.25-1.25zm5.777 3.647a5.42 5.42 0 0 0-2.302-1.93 2.798 2.798 0 0 0 .588-1.717v-.508a2.816 2.816 0 0 0-2.813-2.813 2.816 2.816 0 0 0-2.812 2.813v.508c0 .646.22 1.242.587 1.717a5.42 5.42 0 0 0-2.302 1.93 5.594 5.594 0 0 1-1.098-3.335 5.631 5.631 0 0 1 5.625-5.625 5.631 5.631 0 0 1 5.625 5.625c0 1.248-.409 2.401-1.098 3.335z"/>
            <path d="M11.88 22.282a.93.93 0 0 0-1.314-.048L7.56 25.138l-1.267-1.333a.93.93 0 0 0-1.315-.047 1.01 1.01 0 0 0 0 1.38l1.925 2a.84.84 0 0 0 .657.285.932.932 0 0 0 .658-.286l3.661-3.522a.913.913 0 0 0 0-1.333zM25.354 24.329H14.556a.946.946 0 0 0-.939.952c0 .526.42.952.94.952h10.797a.946.946 0 0 0 .938-.952.946.946 0 0 0-.938-.952zM11.88 29.898a.93.93 0 0 0-1.314-.047L7.56 32.755l-1.267-1.333a.93.93 0 0 0-1.315-.048 1.01 1.01 0 0 0 0 1.38l1.925 2a.84.84 0 0 0 .657.286.932.932 0 0 0 .658-.286l3.661-3.523a.913.913 0 0 0 0-1.333zM25.354 31.945H14.556a.946.946 0 0 0-.939.952c0 .526.42.953.94.953h10.797a.946.946 0 0 0 .938-.953.946.946 0 0 0-.938-.952z"/>
        </g>
    </g>
</svg>
