<svg xmlns="http://www.w3.org/2000/svg" width="24" height="24" viewBox="0 0 24 24">
    <g fill="none" fill-rule="evenodd">
        <path d="M0 0h24v24H0z"/>
        <path stroke="#1F2933" stroke-linecap="round" stroke-linejoin="round" stroke-width="1.4" d="M19.143 17.646v2.571a1.714 1.714 0 0 1-1.869 1.714A16.963 16.963 0 0 1 9.877 19.3a16.714 16.714 0 0 1-5.143-5.143 16.963 16.963 0 0 1-2.631-7.431 1.714 1.714 0 0 1 1.706-1.869H6.38a1.714 1.714 0 0 1 1.714 1.474c.109.823.31 1.631.6 2.409a1.714 1.714 0 0 1-.385 1.809L7.22 11.637a13.714 13.714 0 0 0 5.143 5.143l1.088-1.089a1.714 1.714 0 0 1 1.809-.385c.778.29 1.586.491 2.409.6.861.121 1.495.87 1.474 1.74z"/>
        <g stroke="#D93016" stroke-linecap="round" stroke-linejoin="round" stroke-width="2">
            <path d="M17 3v5M17 11v.5"/>
        </g>
    </g>
</svg>
