<svg xmlns="http://www.w3.org/2000/svg" width="46" height="56" viewBox="0 0 46 56" fill = "#444">
    <g fill="none" fill-rule="evenodd">
        <path d="M-13-8h72v72h-72z"/>
        <g fill-rule="nonzero">
            <path fill="#FFF" d="M31.742 4.022V.878h-18.01v3.144H.88V55.08h43.708V4.022z"/>
            <path fill="#EDF0F2" d="M41.094 7.515v44.064H4.38V7.515h8.475v.53H32.62v-.53z"/>
            <path fill="#B8C2CC" d="M32.62 3.145V0H12.855v3.145H.011v52.804h45.462V3.145H32.62zM14.61 1.746h16.264v4.461H14.61V1.746zm29.108 52.456H1.757V4.9h11.098v3.145h19.756V4.9h11.098l.009 49.302z"/>
            <g fill="#FFF" transform="translate(13.859 11.455)">
                <circle cx="8.787" cy="4.809" r="4.717"/>
                <path d="M17.71 21.594c-.265-4.635-4.105-8.22-8.831-8.22a8.723 8.723 0 0 0-8.74 8.22h17.57z"/>
            </g>
            <g fill="#A7B7C2">
                <path d="M32.528 33.916h-19.49l.091-.96c.338-5.073 4.535-9.004 9.608-9.004 5.156 0 9.444 3.93 9.7 9.005l.091.96zm-17.57-1.746h15.65c-.694-3.675-3.93-6.472-7.87-6.472-3.85 0-7.086 2.797-7.78 6.472zM11.895 41.788H33.58v1.746H11.895zM11.895 36.98H33.58v1.745H11.895zM11.895 46.596h1.746v1.746h-1.746zM15.918 46.596h1.746v1.746h-1.746zM19.849 46.596h1.746v1.746h-1.746zM23.871 46.596h1.746v1.746h-1.746zM27.811 46.596h1.746v1.746h-1.746zM31.834 46.596h1.746v1.746h-1.746zM22.783 10.669a5.552 5.552 0 0 0-5.549 5.549 5.552 5.552 0 0 0 5.55 5.549 5.552 5.552 0 0 0 5.548-5.55 5.552 5.552 0 0 0-5.549-5.548zm0 9.27a3.73 3.73 0 0 1-3.72-3.721 3.73 3.73 0 0 1 3.72-3.72 3.73 3.73 0 0 1 3.72 3.72 3.73 3.73 0 0 1-3.72 3.72z"/>
            </g>
        </g>
    </g>
</svg>
