<svg xmlns="http://www.w3.org/2000/svg" width="12" height="17" viewBox="0 0 12 17" fill="#444">
    <g fill-rule="evenodd">
        <path d="M-4-2h20v20H-4z"/>
        <path fill="#1476CC" fill-rule="nonzero" stroke="#1476CC" stroke-width=".77" d="M10.672 4.772H8.449C8.3 3.35 7.677 2.323 6.87 1.696h3.8c.182 0 .329-.156.329-.348 0-.192-.147-.348-.328-.348H1.328C1.148 1 1 1.156 1 1.348c0 .192.147.348.328.348H5.3c1.061.208 2.27 1.144 2.493 3.076H1.328c-.18 0-.328.157-.328.349 0 .191.147.348.328.348h6.507c-.013.968-.325 1.753-.938 2.332C5.16 9.437 1.615 9.019 1.58 9.016a.33.33 0 0 0-.329.183.366.366 0 0 0 .042.391l6.235 6.29a.317.317 0 0 0 .463.036.364.364 0 0 0 .034-.492L2.3 9.762c1.235.034 3.601-.092 5.031-1.44.76-.715 1.147-1.677 1.16-2.853h2.18c.18 0 .328-.157.328-.348 0-.192-.146-.349-.328-.349z"/>
    </g>
</svg>
