<svg xmlns="http://www.w3.org/2000/svg" width="24" height="24" viewBox="0 0 24 24" fill="#444">
    <g fill="none" fill-rule="evenodd">
        <path d="M0 0h24v24H0z"/>
        <path fill="#667480" fill-rule="nonzero" d="M3.622 13.525h1.466v5.836c0 .344.283.626.628.626h4.294a.629.629 0 0 0 .628-.626v-4.273h2.618v4.273c0 .344.283.626.629.626h4.084a.629.629 0 0 0 .628-.626v-5.836h1.78a.628.628 0 0 0 .576-.385.626.626 0 0 0-.136-.678l-8.19-8.264a.628.628 0 0 0-.879-.01l-8.556 8.264a.624.624 0 0 0 .43 1.073zm8.545-8.003l6.702 6.753h-.9a.629.629 0 0 0-.629.625v5.836h-2.827v-4.273a.629.629 0 0 0-.628-.625H10.01a.629.629 0 0 0-.628.625v4.273H6.345V12.9a.629.629 0 0 0-.629-.625h-.544l6.995-6.753z"/>
    </g>
</svg>
