<svg id="Whatsapp" xmlns="http://www.w3.org/2000/svg" width="77.5" height="25" viewBox="0 0 77.5 25">
  <defs>
    <style>
      .cls-1 {
        fill: none;
      }

      .cls-2 {
        fill: #faedd4;
      }

      .cls-2, .cls-5 {
        fill-rule: evenodd;
      }

      .cls-3 {
        fill: #fd9;
      }

      .cls-4 {
        fill: #3d4351;
      }

      .cls-5 {
        fill: #f2a200;
      }

      .cls-6 {
        fill: #f2daaa;
      }

      .cls-7 {
        fill: #fff;
      }
    </style>
  </defs>
  <title>Trusted</title>
  <rect class="cls-1" x="-79.8" y="-384.51" width="1024" height="1290"/>
  <g>
    <path class="cls-2" d="M18.29,2.5H75.5a2,2,0,0,1,2,2v16a2,2,0,0,1-2,2H18.29c3.78-1.74,5.91-5.56,5.91-10S22.07,4.24,18.29,2.5Z"/>
    <path class="cls-3" d="M12.5,25A12.5,12.5,0,1,1,25,12.5,12.52,12.52,0,0,1,12.5,25Zm0-24A11.5,11.5,0,1,0,24,12.5,11.51,11.51,0,0,0,12.5,1Z"/>
    <g>
      <path class="cls-4" d="M31.26,9.74H28.84V8.5h6.24V9.74H32.66V16.5h-1.4Z"/>
      <path class="cls-4" d="M36.24,10.71H37.5v.85a2.48,2.48,0,0,1,1.88-1v1.24a2.21,2.21,0,0,0-.39,0,2,2,0,0,0-1.49.76V16.5H36.24Z"/>
      <path class="cls-4" d="M44.31,15.73a2.77,2.77,0,0,1-2.05.91,1.64,1.64,0,0,1-1.86-1.83v-4.1h1.26v3.64c0,.9.46,1.18,1.17,1.18a1.91,1.91,0,0,0,1.48-.76V10.71h1.26V16.5H44.31Z"/>
      <path class="cls-4" d="M47.28,14.83a3,3,0,0,0,2,.82c.75,0,1.13-.28,1.13-.71s-.61-.68-1.31-.84c-1-.21-2.19-.48-2.19-1.77,0-.95.82-1.77,2.28-1.77a3.31,3.31,0,0,1,2.26.82l-.53.89a2.34,2.34,0,0,0-1.72-.7c-.66,0-1.08.24-1.08.65s.58.6,1.26.75c1,.22,2.25.51,2.25,1.87,0,1-.85,1.8-2.41,1.8a3.52,3.52,0,0,1-2.49-.9Z"/>
      <path class="cls-4" d="M53.12,15.16V11.81h-1v-1.1h1V9.12h1.26v1.59h1.18v1.1H54.38v3c0,.4.19.69.55.69a.83.83,0,0,0,.57-.21l.3.95a1.65,1.65,0,0,1-1.19.37A1.33,1.33,0,0,1,53.12,15.16Z"/>
      <path class="cls-4" d="M59.28,10.56a2.87,2.87,0,0,1,2.85,3.16V14H57.66a1.74,1.74,0,0,0,1.84,1.59A2.49,2.49,0,0,0,61.15,15l.57.82a3.32,3.32,0,0,1-2.35.84,2.91,2.91,0,0,1-3-3A2.93,2.93,0,0,1,59.28,10.56Zm-1.63,2.57h3.26a1.56,1.56,0,0,0-1.63-1.54A1.6,1.6,0,0,0,57.65,13.13Z"/>
      <path class="cls-4" d="M67.46,15.71a2.36,2.36,0,0,1-1.86.93c-1.49,0-2.58-1.12-2.58-3s1.08-3,2.58-3a2.34,2.34,0,0,1,1.86.95v-3h1.26v8H67.46Zm0-3.25a1.91,1.91,0,0,0-1.5-.78,1.71,1.71,0,0,0-1.63,1.93A1.71,1.71,0,0,0,66,15.53a1.9,1.9,0,0,0,1.5-.77Z"/>
    </g>
    <path class="cls-5" d="M12.85,20.44q6.65-3.26,6.65-7.94v-5A.81.81,0,0,0,19,6.71l-6.2-2.18a.8.8,0,0,0-.53,0L6,6.71a.81.81,0,0,0-.54.76v5q0,4.68,6.65,7.94h0A.78.78,0,0,0,12.85,20.44Z"/>
    <path class="cls-6" d="M12.5,21a1.25,1.25,0,0,1-.57-.13C7.33,18.63,5,15.81,5,12.5v-5a1.31,1.31,0,0,1,.87-1.23l6.2-2.18a1.27,1.27,0,0,1,.86,0l6.2,2.18A1.31,1.31,0,0,1,20,7.47v5c0,3.31-2.33,6.13-6.93,8.39A1.25,1.25,0,0,1,12.5,21Zm0-16a.18.18,0,0,0-.1,0L6.2,7.18a.31.31,0,0,0-.2.29v5c0,2.9,2.14,5.42,6.37,7.49a.3.3,0,0,0,.26,0h0C16.86,17.92,19,15.4,19,12.5v-5a.31.31,0,0,0-.2-.29L12.6,5Z"/>
    <path class="cls-7" d="M11.19,15.4a.43.43,0,0,1-.28-.11l-2.18-2a.41.41,0,0,1,0-.57.4.4,0,0,1,.56,0l1.92,1.79,4.54-4.24a.4.4,0,1,1,.54.58l-4.81,4.5A.4.4,0,0,1,11.19,15.4Z"/>
  </g>
</svg>
