<svg xmlns="http://www.w3.org/2000/svg" width="48" height="48" viewBox="0 0 48 48">
    <g fill="none" fill-rule="evenodd">
        <path d="M0 0h48v48H0z"/>
        <path fill="#EDF0F2" fill-rule="nonzero" d="M35.994 43.219H12.006l1.959-5.781h20.07z"/>
        <path fill="#D93016" fill-rule="nonzero" d="M33.28 37.25H15V25.14a9.14 9.14 0 0 1 18.28 0v12.11z"/>
        <text fill="#FFF" font-family="Roboto-Medium, Roboto" font-size="16" font-weight="400" transform="translate(4 4)">
            <tspan x="18" y="29">!</tspan>
        </text>
        <path fill="#B32712" fill-rule="nonzero" d="M34.775 37.187a.781.781 0 0 0-.74-.53h-.113v-11.33c0-5.47-4.451-9.921-9.922-9.921-5.47 0-9.922 4.45-9.922 9.921v11.33h-.113a.781.781 0 0 0-.74.53l-1.96 5.781a.781.781 0 0 0 .74 1.032h23.99a.781.781 0 0 0 .74-1.032l-1.96-5.781zm-19.134-11.86c0-4.609 3.75-8.359 8.359-8.359 4.61 0 8.36 3.75 8.36 8.36v11.328H15.64V25.328zm-2.546 17.11l1.43-4.218h18.95l1.43 4.219h-21.81z"/>
        <path stroke="#B8C2CC" stroke-width="1.6" d="M34.022 37.456H13.978L12.032 43.2h23.936l-1.946-5.744z"/>
        <path fill="#FFA799" fill-rule="nonzero" d="M24 10.25a.781.781 0 0 1-.781-.781V4.78a.781.781 0 0 1 1.562 0V9.47c0 .431-.35.78-.781.78zm0 3.043a.787.787 0 0 1-.552-.228.788.788 0 0 1-.23-.552c0-.207.084-.407.23-.553a.786.786 0 0 1 1.104 0 .789.789 0 0 1 .23.553.789.789 0 0 1-.23.552.786.786 0 0 1-.552.228zm-11.758 12.4c0 .43-.35.78-.78.78H7.873a.781.781 0 0 1 0-1.562h3.587c.432 0 .781.35.781.781zm-7.46-.782c.205 0 .407.083.552.229a.787.787 0 0 1 .229.552.787.787 0 0 1-.229.552.787.787 0 0 1-.552.23.787.787 0 0 1-.553-.23.787.787 0 0 1-.228-.552c0-.205.083-.407.228-.552a.787.787 0 0 1 .553-.23zm12.514-13.36l-1.058-2.557a.781.781 0 0 1 1.443-.598l1.06 2.556a.781.781 0 0 1-1.445.598zM9.56 20.49c-.1 0-.201-.018-.3-.059l-2.555-1.059a.781.781 0 0 1 .598-1.443l2.556 1.059a.781.781 0 0 1-.3 1.503zm30.893 4.42a.781.781 0 0 1 0 1.562h-3.588a.781.781 0 0 1 0-1.562h3.588zm3.318.229a.787.787 0 0 1 .23.552.787.787 0 0 1-.23.552.787.787 0 0 1-.552.23.787.787 0 0 1-.552-.23.787.787 0 0 1-.229-.552c0-.205.084-.407.229-.552a.787.787 0 0 1 .552-.23c.206 0 .407.085.552.23zm-8.717-9.72a.781.781 0 0 1-.553-1.334l3.844-3.843a.782.782 0 0 1 1.105 1.105l-3.844 3.844a.779.779 0 0 1-.552.229zm-22.658-.228L8.55 11.348a.781.781 0 0 1 1.105-1.105l3.844 3.844a.781.781 0 0 1-1.105 1.105zm17.288-3.22a.781.781 0 0 1-.423-1.02l1.059-2.556a.782.782 0 0 1 1.443.598l-1.059 2.556a.782.782 0 0 1-1.02.423zm11.015 5.958a.781.781 0 0 1 .598 1.443l-2.556 1.06a.78.78 0 0 1-1.02-.424.781.781 0 0 1 .422-1.02l2.556-1.06z"/>
    </g>
</svg>
